<?xml version="1.0" encoding="utf-8"?>
<svg xmlns="http://www.w3.org/2000/svg" viewBox="0 0 64 80" version="1.1" style="" x="0px" y="0px" fill-rule="evenodd" clip-rule="evenodd" stroke-linejoin="round" stroke-miterlimit="2">
  <g transform="matrix(1.092134, 0, 0, 1.113813, -154.924194, -74.723389)" style="">
    <path d="M174.436,129.593C174.075,129.705 173.71,129.809 173.339,129.906C172.805,130.046 172.485,130.592 172.624,131.126C172.764,131.66 173.311,131.981 173.845,131.841C174.244,131.737 174.639,131.624 175.029,131.503C175.556,131.339 175.852,130.779 175.688,130.251C175.524,129.724 174.964,129.429 174.436,129.593ZM180.998,102.874C180.998,101.688 180.788,100.551 180.404,99.499C182.639,102.47 183.473,106.47 182.864,110.052C181.918,115.62 176.229,121.986 167.039,122.455C156.677,122.983 146.985,116.02 144.122,105.058C143.983,104.524 143.436,104.204 142.902,104.343C142.368,104.483 142.048,105.029 142.187,105.563C145.302,117.487 155.87,125.027 167.141,124.452C177.472,123.926 183.773,116.647 184.836,110.387C186.169,102.543 181.446,93.049 171.185,93.03L171.155,93.03C169.969,93.03 168.833,93.24 167.78,93.625C170.751,91.39 174.751,90.556 178.333,91.164C183.901,92.11 190.268,97.8 190.736,106.989C191.165,115.397 186.661,123.366 179.092,127.599C178.61,127.869 178.438,128.479 178.707,128.96C178.977,129.442 179.586,129.614 180.068,129.345C188.312,124.734 193.2,116.045 192.734,106.888C192.207,96.556 184.928,90.256 178.668,89.192C170.816,87.858 161.311,92.592 161.311,102.874C161.311,104.059 161.521,105.196 161.906,106.249C159.671,103.277 158.837,99.278 159.445,95.695C160.391,90.127 166.081,83.761 175.271,83.292C185.633,82.764 195.324,89.727 198.187,100.689C198.327,101.223 198.873,101.544 199.407,101.404C199.941,101.265 200.262,100.718 200.122,100.184C197.008,88.26 186.44,80.72 175.169,81.295C164.837,81.822 158.537,89.101 157.474,95.36C156.14,103.212 160.873,112.717 171.155,112.717C172.34,112.717 173.477,112.507 174.53,112.122C171.558,114.357 167.559,115.192 163.976,114.583C158.409,113.637 152.042,107.947 151.573,98.758C151.145,90.35 155.649,82.381 163.218,78.148C163.7,77.878 163.872,77.269 163.602,76.787C163.333,76.305 162.723,76.133 162.242,76.402C153.998,81.013 149.109,89.703 149.576,98.86C150.103,109.191 157.382,115.492 163.641,116.555C171.494,117.889 180.998,113.155 180.998,102.874ZM171.155,110.717C166.826,110.717 163.311,107.203 163.311,102.874C163.311,98.545 166.826,95.03 171.155,95.03C175.484,95.03 178.998,98.545 178.998,102.874C178.998,107.203 175.484,110.717 171.155,110.717ZM167.873,76.154C168.234,76.042 168.6,75.938 168.97,75.841C169.504,75.702 169.825,75.155 169.685,74.621C169.546,74.087 168.999,73.767 168.465,73.906C168.065,74.011 167.67,74.123 167.28,74.244C166.753,74.408 166.458,74.969 166.622,75.496C166.785,76.023 167.346,76.318 167.873,76.154Z"/>
  </g>
</svg>